<svg width="165" height="46" viewBox="0 0 165 46" fill="none" xmlns="http://www.w3.org/2000/svg">
<path d="M11.7627 32L6.60645 15.1982H6.47461C6.66016 18.6162 6.75293 20.8965 6.75293 22.0391V32H2.69531V10.584H8.87695L13.9453 26.9609H14.0332L19.4092 10.584H25.5908V32H21.3574V21.8633C21.3574 21.3848 21.3623 20.833 21.3721 20.208C21.3916 19.583 21.46 17.9229 21.5771 15.2275H21.4453L15.9229 32H11.7627ZM28.3008 15.623H33.1934L36.2842 24.8369C36.5479 25.6377 36.7285 26.585 36.8262 27.6787H36.9141C37.0215 26.6729 37.2314 25.7256 37.5439 24.8369L40.5762 15.623H45.3662L38.4375 34.0947C37.8027 35.8037 36.8945 37.083 35.7129 37.9326C34.541 38.7822 33.1689 39.207 31.5967 39.207C30.8252 39.207 30.0684 39.124 29.3262 38.958V35.4131C29.8633 35.54 30.4492 35.6035 31.084 35.6035C31.875 35.6035 32.5635 35.3594 33.1494 34.8711C33.7451 34.3926 34.209 33.665 34.541 32.6885L34.8047 31.8828L28.3008 15.623ZM46.2744 25.7891V22.127H54.1406V25.7891H46.2744ZM66.8408 14.0557C65.1318 14.0557 63.8086 14.7002 62.8711 15.9893C61.9336 17.2686 61.4648 19.0557 61.4648 21.3506C61.4648 26.126 63.2568 28.5137 66.8408 28.5137C68.3447 28.5137 70.166 28.1377 72.3047 27.3857V31.1943C70.5469 31.9268 68.584 32.293 66.416 32.293C63.3008 32.293 60.918 31.3506 59.2676 29.4658C57.6172 27.5713 56.792 24.8564 56.792 21.3213C56.792 19.0947 57.1973 17.1465 58.0078 15.4766C58.8184 13.7969 59.9805 12.5127 61.4941 11.624C63.0176 10.7256 64.7998 10.2764 66.8408 10.2764C68.9209 10.2764 71.0107 10.7793 73.1104 11.7852L71.6455 15.4766C70.8447 15.0957 70.0391 14.7637 69.2285 14.4805C68.418 14.1973 67.6221 14.0557 66.8408 14.0557ZM80.083 23.7822C80.083 25.4033 80.3467 26.6289 80.874 27.459C81.4111 28.2891 82.2803 28.7041 83.4814 28.7041C84.6729 28.7041 85.5273 28.2939 86.0449 27.4736C86.5723 26.6436 86.8359 25.4131 86.8359 23.7822C86.8359 22.1611 86.5723 20.9453 86.0449 20.1348C85.5176 19.3242 84.6533 18.9189 83.4521 18.9189C82.2607 18.9189 81.4014 19.3242 80.874 20.1348C80.3467 20.9355 80.083 22.1514 80.083 23.7822ZM91.4062 23.7822C91.4062 26.4482 90.7031 28.5332 89.2969 30.0371C87.8906 31.541 85.9326 32.293 83.4229 32.293C81.8506 32.293 80.4639 31.9512 79.2627 31.2676C78.0615 30.5742 77.1387 29.583 76.4941 28.2939C75.8496 27.0049 75.5273 25.501 75.5273 23.7822C75.5273 21.1064 76.2256 19.0264 77.6221 17.542C79.0186 16.0576 80.9814 15.3154 83.5107 15.3154C85.083 15.3154 86.4697 15.6572 87.6709 16.3408C88.8721 17.0244 89.7949 18.0059 90.4395 19.2852C91.084 20.5645 91.4062 22.0635 91.4062 23.7822ZM109.761 32H105.293V22.4346C105.293 21.2529 105.093 20.3691 104.692 19.7832C104.302 19.1875 103.682 18.8896 102.832 18.8896C101.689 18.8896 100.859 19.3096 100.342 20.1494C99.8242 20.9893 99.5654 22.3711 99.5654 24.2949V32H95.0977V15.623H98.5107L99.1113 17.7178H99.3604C99.7998 16.9658 100.435 16.3799 101.265 15.96C102.095 15.5303 103.047 15.3154 104.121 15.3154C106.572 15.3154 108.232 16.1162 109.102 17.7178H109.497C109.937 16.9561 110.581 16.3652 111.431 15.9453C112.29 15.5254 113.257 15.3154 114.331 15.3154C116.187 15.3154 117.588 15.7939 118.535 16.751C119.492 17.6982 119.971 19.2217 119.971 21.3213V32H115.488V22.4346C115.488 21.2529 115.288 20.3691 114.888 19.7832C114.497 19.1875 113.877 18.8896 113.027 18.8896C111.934 18.8896 111.113 19.2803 110.566 20.0615C110.029 20.8428 109.761 22.083 109.761 23.7822V32Z" fill="#3300FF"/>
<rect x="143" y="22" width="10" height="10" fill="#E5A019"/>
<rect x="128" y="22" width="10" height="10" fill="#E5A019"/>
<rect x="143" y="7" width="10" height="10" fill="#E5A019"/>
<circle cx="133" cy="12" r="5" fill="#C4C4C4"/>
</svg>
